<svg width="20" height="20" viewBox="0 0 18 18" fill="none" xmlns="http://www.w3.org/2000/svg">
  <g>
    <path d="M12.1 5.246H2.903a1.97 1.97 0 0 0-1.97 1.971v6.57a1.97 1.97 0 0 0 1.97 1.97H12.1a1.97 1.97 0 0 0 1.971-1.97v-6.57a1.97 1.97 0 0 0-1.97-1.97Zm-.269 1.314-3.863 3.863a.656.656 0 0 1-.933 0L3.172 6.56h8.659Zm.926 7.227a.657.657 0 0 1-.657.656H2.903a.657.657 0 0 1-.657-.656v-6.3l3.863 3.862a1.97 1.97 0 0 0 2.785 0l3.863-3.863v6.3Z" fill="#5D6A7E"></path>
    <path fill-rule="evenodd" clip-rule="evenodd" d="M7 5.5a5.5 5.5 0 1 1 11 0 5.5 5.5 0 0 1-11 0Z" fill="#02C797" class="no-cascade"></path>
    <path fill-rule="evenodd" clip-rule="evenodd" d="M15.196 3.04a.8.8 0 0 1 .17 1.12L12.9 7.517a1.067 1.067 0 0 1-1.67.062L9.672 5.761a.8.8 0 1 1 1.215-1.04l1.121 1.308 2.07-2.817a.8.8 0 0 1 1.119-.171Z" fill="#fff" class="no-cascade"></path>
  </g>
  <defs>
    <clipPath id="a">
      <path fill="#fff" d="M0 0h18v18H0z"></path>
    </clipPath>
  </defs>
</svg>
