<?xml version="1.0" encoding="UTF-8"?>
<svg version="1.1" xmlns="http://www.w3.org/2000/svg" width="988" height="828">
<path d="M0 0 C326.04 0 652.08 0 988 0 C988 273.24 988 546.48 988 828 C661.96 828 335.92 828 0 828 C0 554.76 0 281.52 0 0 Z " fill="#FEFEFE" transform="translate(0,0)"/>
<path d="M0 0 C21.78 0 43.56 0 66 0 C67.69026137 3.38052274 67.24444959 7.22260142 67.31640625 10.9453125 C67.33718735 11.8303244 67.35796844 12.7153363 67.37937927 13.62716675 C67.44486598 16.45969741 67.50375562 19.29232225 67.5625 22.125 C67.60568606 24.04297857 67.64930037 25.96094754 67.69335938 27.87890625 C67.80054647 32.58584051 67.9018164 37.29286967 68 42 C68.88913086 41.31437988 69.77826172 40.62875977 70.69433594 39.92236328 C71.87433019 39.01332199 73.05434425 38.10430642 74.234375 37.1953125 C74.81880371 36.74454346 75.40323242 36.29377441 76.00537109 35.8293457 C87.47142551 27 87.47142551 27 89 27 C89 49.44 89 71.88 89 95 C86.01888108 93.50944054 83.74348056 92.18654964 81.12109375 90.234375 C80.37424316 89.68096436 79.62739258 89.12755371 78.85791016 88.55737305 C78.0591748 87.96093994 77.26043945 87.36450684 76.4375 86.75 C74.72527214 85.48045294 73.01303221 84.21092216 71.30078125 82.94140625 C69.53383034 81.62763621 67.76690313 80.3138343 66 79 C60.3978009 74.84227787 54.78523245 70.69955623 49.15234375 66.58349609 C47.12030075 65.0885062 45.10616716 63.57202339 43.09375 62.05078125 C41.93817928 61.19959786 40.78197726 60.34927054 39.625 59.5 C38.64789063 58.7678125 37.67078125 58.035625 36.6640625 57.28125 C34.12721327 55.74069328 34.12721327 55.74069328 31.65625 56.421875 C27.89742848 58.6550572 24.38968475 61.15258735 20.875 63.75 C20.09165283 64.32274658 19.30830566 64.89549316 18.5012207 65.4855957 C16.84191107 66.70029143 15.18448155 67.91755904 13.52880859 69.13720703 C11.04001265 70.97052553 8.54600591 72.796538 6.05078125 74.62109375 C-2.27838535 80.72388202 -10.53540804 86.89175006 -18.62890625 93.3046875 C-21 95 -21 95 -23 95 C-23 72.56 -23 50.12 -23 27 C-15.125 31.5 -15.125 31.5 -12.25390625 33.796875 C-11.64482422 34.28027344 -11.03574219 34.76367188 -10.40820312 35.26171875 C-9.79912109 35.75285156 -9.19003906 36.24398437 -8.5625 36.75 C-7.92634766 37.25660156 -7.29019531 37.76320313 -6.63476562 38.28515625 C-5.08643087 39.51916741 -3.54272018 40.75897683 -2 42 C-1.97494385 40.79875488 -1.9498877 39.59750977 -1.92407227 38.35986328 C-1.83006856 33.91313571 -1.72983083 29.46656693 -1.62768555 25.02001953 C-1.58430999 23.09362496 -1.54263686 21.16719129 -1.50268555 19.24072266 C-1.44504638 16.47546592 -1.38133384 13.7104065 -1.31640625 10.9453125 C-1.29969376 10.0806839 -1.28298126 9.2160553 -1.26576233 8.32522583 C-1.11387171 2.22774341 -1.11387171 2.22774341 0 0 Z " fill="#1A91EB" transform="translate(442,347)"/>
<path d="M0 0 C3.2501273 1.61808913 6.12559959 3.59372154 9.04296875 5.734375 C9.65052002 6.17426758 10.25807129 6.61416016 10.8840332 7.06738281 C16.09279176 10.85436458 21.24622923 14.71601749 26.38671875 18.5949707 C30.19333561 21.46600859 34.01697237 24.3111947 37.86328125 27.12890625 C38.72477783 27.76022461 39.58627441 28.39154297 40.47387695 29.04199219 C42.15573562 30.27265947 43.83911073 31.50125767 45.52416992 32.72753906 C46.28963135 33.28795898 47.05509277 33.84837891 47.84375 34.42578125 C48.52219971 34.92021729 49.20064941 35.41465332 49.8996582 35.92407227 C51.65250638 37.29825474 53.19388083 38.74997149 54.73046875 40.359375 C53.73046875 41.359375 53.73046875 41.359375 51.88951015 41.48242283 C50.67412611 41.48104014 50.67412611 41.48104014 49.43418884 41.47962952 C48.50725723 41.48100418 47.58032562 41.48237885 46.62530518 41.48379517 C45.60031921 41.48019989 44.57533325 41.47660461 43.51928711 41.47290039 C41.90972893 41.47311943 41.90972893 41.47311943 40.26765442 41.4733429 C36.70185359 41.47264324 33.13610426 41.46484838 29.5703125 41.45703125 C27.10551482 41.45516726 24.64071676 41.45374327 22.17591858 41.45274353 C15.6739297 41.44891687 9.171963 41.43908532 2.66998291 41.42803955 C-3.95893942 41.41729248 -10.58786818 41.41324659 -17.21679688 41.40820312 C-30.23438449 41.39746319 -43.25195669 41.38057597 -56.26953125 41.359375 C-56.59953125 40.699375 -56.92953125 40.039375 -57.26953125 39.359375 C-56.10677083 38.50260417 -54.94401042 37.64583333 -53.78125 36.7890625 C-52.64139648 35.94915771 -52.64139648 35.94915771 -51.47851562 35.09228516 C-49.77802742 33.83931118 -48.07750585 32.5863825 -46.37695312 31.33349609 C-41.9718869 28.08795594 -37.56731187 24.84175477 -33.1640625 21.59375 C-15.12975041 8.29255381 -15.12975041 8.29255381 -10.4296875 4.921875 C-9.08432286 3.94873602 -7.75514326 2.95228945 -6.453125 1.921875 C-2.86808894 -0.80958104 -2.86808894 -0.80958104 0 0 Z " fill="#E3E9EF" transform="translate(476.26953125,402.640625)"/>
<path d="M0 0 C0 3.63 0 7.26 0 11 C8.25 11 16.5 11 25 11 C25 21.23 25 31.46 25 42 C16.75 42 8.5 42 0 42 C0 45.63 0 49.26 0 53 C-6.53097367 52.25449052 -12.97126856 51.17645345 -19.4375 50 C-20.44232422 49.82210937 -21.44714844 49.64421875 -22.48242188 49.4609375 C-23.43568359 49.28820312 -24.38894531 49.11546875 -25.37109375 48.9375 C-26.23661865 48.78152344 -27.10214355 48.62554688 -27.99389648 48.46484375 C-30 48 -30 48 -31 47 C-31.08871273 43.97022196 -31.1151935 40.96332978 -31.09765625 37.93359375 C-31.0962413 37.02497086 -31.09482635 36.11634796 -31.09336853 35.18019104 C-31.08775193 32.26592779 -31.07519665 29.35174019 -31.0625 26.4375 C-31.05748714 24.46679798 -31.05292386 22.49609476 -31.04882812 20.52539062 C-31.03777711 15.68356441 -31.02050138 10.84179505 -31 6 C-25.30251133 4.33480143 -19.6293959 3.02897641 -13.8125 1.875 C-12.92369141 1.69324219 -12.03488281 1.51148438 -11.11914062 1.32421875 C-10.26126953 1.15277344 -9.40339844 0.98132813 -8.51953125 0.8046875 C-7.36094604 0.57241455 -7.36094604 0.57241455 -6.17895508 0.33544922 C-4 0 -4 0 0 0 Z " fill="#07C899" transform="translate(470,680)"/>
<path d="M0 0 C6.35726881 1.45199659 10.64739258 4.8464034 14.3984375 10.11425781 C19.81845 20.3538383 19.08265687 37.4731477 16.7578125 48.62988281 C15.15576172 51.03930664 15.15576172 51.03930664 12.7578125 52.62988281 C9.4296875 53.14746094 9.4296875 53.14746094 5.5078125 53.16113281 C4.81268555 53.16495972 4.11755859 53.16878662 3.40136719 53.17272949 C1.93553209 53.17544461 0.46964822 53.16811116 -0.99609375 53.15136719 C-3.23547725 53.129947 -5.47165337 53.15117724 -7.7109375 53.17675781 C-9.13802789 53.17411446 -10.56511629 53.16898931 -11.9921875 53.16113281 C-13.28640625 53.15662109 -14.580625 53.15210938 -15.9140625 53.14746094 C-19.2421875 52.62988281 -19.2421875 52.62988281 -21.66210938 51.21386719 C-24.11634163 47.20033286 -23.81367612 43.37291499 -23.7734375 38.75488281 C-23.7772644 37.79340332 -23.78109131 36.83192383 -23.78503418 35.84130859 C-23.78775352 33.81053621 -23.78039079 31.77972882 -23.76367188 29.74902344 C-23.74226275 26.64080711 -23.76347296 23.53490226 -23.7890625 20.42675781 C-23.78641923 18.45279438 -23.78129426 16.47883238 -23.7734375 14.50488281 C-23.78153442 13.57562988 -23.78963135 12.64637695 -23.79797363 11.68896484 C-23.70530469 5.31168339 -23.70530469 5.31168339 -21.50341797 2.07006836 C-15.45287195 -1.78354544 -6.86032043 -0.88498134 0 0 Z " fill="#F6FDFB" transform="translate(877.2421875,435.3701171875)"/>
<path d="M0 0 C3.57255912 1.30051433 6.24402219 3.42310082 9.15234375 5.80078125 C10.25368739 6.68419117 11.35654386 7.56571851 12.4609375 8.4453125 C12.9957373 8.87150879 13.53053711 9.29770508 14.08154297 9.73681641 C16.54289754 11.62275116 19.11205851 13.30412609 21.71484375 14.98828125 C22.1838208 14.60494629 22.65279785 14.22161133 23.13598633 13.82666016 C25.26530998 12.08747981 27.39630612 10.35036093 29.52734375 8.61328125 C30.26533203 8.01 31.00332031 7.40671875 31.76367188 6.78515625 C32.47587891 6.20507812 33.18808594 5.625 33.921875 5.02734375 C34.57647705 4.49318848 35.2310791 3.9590332 35.90551758 3.40869141 C40.30429169 -0.04456291 40.30429169 -0.04456291 43.83984375 0.23828125 C44.78859375 0.48578125 45.73734375 0.73328125 46.71484375 0.98828125 C48.23229323 4.02318021 47.89841755 7.18504111 47.91796875 10.515625 C47.92366882 11.26034561 47.9293689 12.00506622 47.9352417 12.77235413 C47.94469166 14.34846576 47.95122567 15.92459716 47.95507812 17.50073242 C47.96479207 19.91294728 47.99581736 22.32431302 48.02734375 24.73632812 C48.03387307 26.26692202 48.03912382 27.79752201 48.04296875 29.328125 C48.05531555 30.05007553 48.06766235 30.77202606 48.0803833 31.51585388 C48.05811004 36.51825697 48.05811004 36.51825697 46.48052979 38.6783905 C44.2167134 40.35782392 42.91098752 40.36829691 40.10742188 40.37646484 C39.1763562 40.38592133 38.24529053 40.39537781 37.28601074 40.40512085 C36.28283813 40.39904816 35.27966553 40.39297546 34.24609375 40.38671875 C32.69831238 40.39102402 32.69831238 40.39102402 31.1192627 40.39541626 C28.93708752 40.39745826 26.7548941 40.39191896 24.57275391 40.37939453 C21.22777475 40.3633433 17.88400396 40.37923916 14.5390625 40.3984375 C12.42057024 40.39645509 10.30207874 40.39261147 8.18359375 40.38671875 C6.67883484 40.39582779 6.67883484 40.39582779 5.14367676 40.40512085 C4.21261108 40.39566437 3.28154541 40.38620789 2.32226562 40.37646484 C1.09340637 40.37288467 1.09340637 40.37288467 -0.16027832 40.36923218 C-2.8178415 39.89278073 -3.70216565 39.15107523 -5.28515625 36.98828125 C-5.58334203 34.36574667 -5.70574549 31.98534159 -5.68359375 29.36328125 C-5.68646393 28.61997559 -5.68933411 27.87666992 -5.69229126 27.11083984 C-5.69433101 25.54068235 -5.68880725 23.97049939 -5.67626953 22.40039062 C-5.66021328 19.99681793 -5.67611977 17.59492664 -5.6953125 15.19140625 C-5.69333005 13.66536087 -5.68948634 12.13931654 -5.68359375 10.61328125 C-5.69270279 9.53506104 -5.69270279 9.53506104 -5.70199585 8.43505859 C-5.66038309 5.48325572 -5.62274401 3.47125656 -3.90307617 1.01098633 C-2.28515625 -0.01171875 -2.28515625 -0.01171875 0 0 Z " fill="#E6EEEF" transform="translate(516.28515625,68.01171875)"/>
<path d="M0 0 C0.33 0 0.66 0 1 0 C0.97268799 1.22517334 0.94537598 2.45034668 0.91723633 3.71264648 C0.82989064 8.29220229 0.81581948 12.86964897 0.82299805 17.44995117 C0.81605538 19.42570523 0.78967926 21.40149612 0.74291992 23.37670898 C0.13764601 34.91997297 0.13764601 34.91997297 4.35302734 45.2175293 C7.13470812 47.49746154 9.8667352 49.2479459 13 51 C14.68713115 52.28608806 16.35773248 53.5945959 18 54.9375 C20.29687329 56.72348787 22.57567446 58.38378297 25 60 C24.28199219 60.48726563 23.56398438 60.97453125 22.82421875 61.4765625 C8.99693998 70.94730138 -4.49292668 80.89630624 -17.62890625 91.3046875 C-20 93 -20 93 -22 93 C-22 70.56 -22 48.12 -22 25 C-15 29 -15 29 -1 40 C-0.67 26.8 -0.34 13.6 0 0 Z " fill="#9CABC1" transform="translate(441,349)"/>
<path d="M0 0 C0.33 0 0.66 0 1 0 C1.495 19.8 1.495 19.8 2 40 C6.29 36.7 10.58 33.4 15 30 C21.8 25 21.8 25 23 25 C23 47.44 23 69.88 23 93 C20.01888108 91.50944054 17.74348056 90.18654964 15.12109375 88.234375 C14.37351807 87.68056152 13.62594238 87.12674805 12.85571289 86.55615234 C12.05770264 85.96012207 11.25969238 85.3640918 10.4375 84.75 C8.7371403 83.48676224 7.0366144 82.22374818 5.3359375 80.9609375 C4.4603418 80.30963867 3.58474609 79.65833984 2.68261719 78.98730469 C0.01825174 77.01352104 -2.65666665 75.05505369 -5.3359375 73.1015625 C-6.1911499 72.47668945 -7.0463623 71.85181641 -7.92749023 71.20800781 C-9.56847262 70.00963258 -11.21114653 68.81356928 -12.85571289 67.62011719 C-16.50061857 64.95056454 -19.93627876 62.34966855 -23 59 C-22.5467334 58.66266846 -22.0934668 58.32533691 -21.62646484 57.9777832 C-19.54133644 56.4244343 -17.45816097 54.86848626 -15.375 53.3125 C-14.66214844 52.78205078 -13.94929688 52.25160156 -13.21484375 51.70507812 C-12.51230469 51.17978516 -11.80976563 50.65449219 -11.0859375 50.11328125 C-10.4470459 49.63673096 -9.8081543 49.16018066 -9.14990234 48.66918945 C-8.44043457 48.11835693 -7.7309668 47.56752441 -7 47 C-5.94232422 46.31035156 -4.88464844 45.62070312 -3.79492188 44.91015625 C-1.12664874 42.655554 -0.54070824 41.03656172 -0.22705078 37.5769043 C-0.18629843 35.82645147 -0.17748058 34.07505509 -0.1953125 32.32421875 C-0.18160614 31.3990596 -0.16789978 30.47390045 -0.15377808 29.52070618 C-0.11649046 26.5758089 -0.12019207 23.63259977 -0.125 20.6875 C-0.10687235 18.68682261 -0.08606945 16.68616755 -0.0625 14.68554688 C-0.01066052 9.79008185 0.00443138 4.89572444 0 0 Z " fill="#9CABC1" transform="translate(508,349)"/>
<path d="M0 0 C2.74724513 0.96456331 5.29498942 2.2501754 7.8828125 3.578125 C8.61950165 3.94597107 9.3561908 4.31381714 10.11520386 4.69281006 C11.66612754 5.47060475 13.21411443 6.25427998 14.75927734 7.04345703 C17.11730973 8.24607788 19.48528336 9.42701316 21.85546875 10.60546875 C23.36522133 11.36592218 24.87435771 12.12760047 26.3828125 12.890625 C27.08705353 13.24183411 27.79129456 13.59304321 28.51687622 13.95489502 C32.22915049 15.86456234 35.38501255 17.64205191 38 21 C38.0625 24.5 38.0625 24.5 37 28 C33.46974535 31.28013295 29.50669228 33.48681465 25.23046875 35.63671875 C24.59063553 35.96162796 23.95080231 36.28653717 23.2915802 36.62129211 C21.94426015 37.30250591 20.59532498 37.98053377 19.24487305 38.65551758 C17.19741061 39.68252882 15.16032671 40.72835613 13.12304688 41.77539062 C11.8052791 42.43867665 10.48693738 43.10082388 9.16796875 43.76171875 C8.26911201 44.22731453 8.26911201 44.22731453 7.35209656 44.70231628 C2.8143874 46.93530514 -1.00095183 47.77257606 -6 48 C-8.89626432 45.61058193 -9.79751923 43.96740811 -10.5625 40.3125 C-9.86340568 36.19561123 -8.16870843 33.15909461 -6.09375 29.5625 C-4.33870391 25.45067773 -4.46549658 22.35916585 -6.09375 18.21875 C-6.5578125 17.3215625 -7.021875 16.424375 -7.5 15.5 C-9.60096633 11.43813177 -10.42243017 8.59552819 -10 4 C-7.12309695 -0.20470446 -4.90977754 -0.47742909 0 0 Z " fill="#14CB9E" transform="translate(74,348)"/>
<path d="M0 0 C0 2.31 0 4.62 0 7 C5.61 7 11.22 7 17 7 C17 13.93 17 20.86 17 28 C11.39 28 5.78 28 0 28 C0 30.31 0 32.62 0 35 C-7.6916311 35.39109989 -14.60046572 34.12516386 -22 32 C-23 31 -23 31 -23.11352539 28.40795898 C-23.10828857 27.28204346 -23.10305176 26.15612793 -23.09765625 24.99609375 C-23.09443359 23.78115234 -23.09121094 22.56621094 -23.08789062 21.31445312 C-23.07951172 20.03505859 -23.07113281 18.75566406 -23.0625 17.4375 C-23.05798828 16.15423828 -23.05347656 14.87097656 -23.04882812 13.54882812 C-23.03699545 10.36583978 -23.02051068 7.18294238 -23 4 C-19.52768573 2.15852193 -16.53014036 1.44848215 -12.625 0.875 C-11.52414062 0.70742187 -10.42328125 0.53984375 -9.2890625 0.3671875 C-6.15901977 0.0177528 -3.14608144 -0.06653344 0 0 Z " fill="#A0ADC1" transform="translate(731,218)"/>
<path d="M0 0 C1.18537354 0.00410889 2.37074707 0.00821777 3.59204102 0.01245117 C5.52466797 0.01535156 5.52466797 0.01535156 7.49633789 0.01831055 C8.50531128 0.02761597 8.50531128 0.02761597 9.53466797 0.03710938 C11.58451822 0.0553184 13.63391535 0.05761934 15.68383789 0.05737305 C25.73746275 0.10259175 25.73746275 0.10259175 29.15844727 1.24291992 C31.22235668 4.33878404 31.41357904 5.04040444 31.42407227 8.55151367 C31.42793945 9.79578125 31.42793945 9.79578125 31.43188477 11.06518555 C31.42415039 11.92821289 31.41641602 12.79124023 31.40844727 13.68041992 C31.42004883 14.96916016 31.42004883 14.96916016 31.43188477 16.28393555 C31.42930664 17.11473633 31.42672852 17.94553711 31.42407227 18.80151367 C31.42181641 19.55746826 31.41956055 20.31342285 31.41723633 21.09228516 C31.1188422 23.57205299 30.52770825 25.15562487 29.15844727 27.24291992 C24.14411016 28.91436562 18.90229651 28.42885349 13.65185547 28.42822266 C11.59980737 28.4304158 9.54829139 28.44860482 7.49633789 28.4675293 C5.56371094 28.47042969 5.56371094 28.47042969 3.59204102 28.47338867 C2.40666748 28.47749756 1.22129395 28.48160645 0 28.48583984 C-2.84155273 28.24291992 -2.84155273 28.24291992 -4.84155273 26.24291992 C-5.1003418 23.84448242 -5.1003418 23.84448242 -5.10717773 20.86791992 C-5.10975586 19.80057617 -5.11233398 18.73323242 -5.11499023 17.63354492 C-5.10338867 15.95518555 -5.10338867 15.95518555 -5.09155273 14.24291992 C-5.09928711 13.12401367 -5.10702148 12.00510742 -5.11499023 10.85229492 C-5.11241211 9.78495117 -5.10983398 8.71760742 -5.10717773 7.61791992 C-5.10492188 6.6356543 -5.10266602 5.65338867 -5.1003418 4.64135742 C-4.7042519 0.97042615 -3.608218 0.30846094 0 0 Z " fill="#A6B1C4" transform="translate(272.841552734375,155.757080078125)"/>
<path d="M0 0 C4.75870852 1.13757236 7.39829732 3.89629586 10.31591797 7.64892578 C14.06072251 14.71768275 13.61355784 24.82197584 11.99560547 32.47705078 C10.63232422 35.07470703 10.63232422 35.07470703 7.99560547 36.47705078 C4.29306464 37.03891946 0.6715123 37.03474966 -3.06689453 36.97705078 C-4.07300781 36.99251953 -5.07912109 37.00798828 -6.11572266 37.02392578 C-7.08058594 37.01876953 -8.04544922 37.01361328 -9.03955078 37.00830078 C-9.92006104 37.00378906 -10.80057129 36.99927734 -11.70776367 36.99462891 C-14.00439453 36.47705078 -14.00439453 36.47705078 -15.78979492 34.8581543 C-17.38862298 31.72380855 -17.39271191 29.36199351 -17.40283203 25.84814453 C-17.40669922 24.56617188 -17.41056641 23.28419922 -17.41455078 21.96337891 C-17.4082666 21.29894775 -17.40198242 20.6345166 -17.39550781 19.94995117 C-17.3794162 17.91728855 -17.39538688 15.88660578 -17.41455078 13.85400391 C-17.41068359 12.57332031 -17.40681641 11.29263672 -17.40283203 9.97314453 C-17.39944824 8.79937256 -17.39606445 7.62560059 -17.39257812 6.41625977 C-17.00439453 3.47705078 -17.00439453 3.47705078 -15.69458008 1.61352539 C-11.41639062 -1.26311363 -4.93960551 -0.6434083 0 0 Z " fill="#F9FAFB" transform="translate(248.00439453125,571.52294921875)"/>
<path d="M0 0 C3.57255912 1.30051433 6.24402219 3.42310082 9.15234375 5.80078125 C10.25368739 6.68419117 11.35654386 7.56571851 12.4609375 8.4453125 C12.9957373 8.87150879 13.53053711 9.29770508 14.08154297 9.73681641 C16.54289754 11.62275116 19.11205851 13.30412609 21.71484375 14.98828125 C22.1838208 14.60494629 22.65279785 14.22161133 23.13598633 13.82666016 C25.26530998 12.08747981 27.39630612 10.35036093 29.52734375 8.61328125 C30.26533203 8.01 31.00332031 7.40671875 31.76367188 6.78515625 C32.47587891 6.20507812 33.18808594 5.625 33.921875 5.02734375 C34.57647705 4.49318848 35.2310791 3.9590332 35.90551758 3.40869141 C40.30429169 -0.04456291 40.30429169 -0.04456291 43.83984375 0.23828125 C44.78859375 0.48578125 45.73734375 0.73328125 46.71484375 0.98828125 C48.23229323 4.02318021 47.89841755 7.18504111 47.91796875 10.515625 C47.92366882 11.26034561 47.9293689 12.00506622 47.9352417 12.77235413 C47.94469166 14.34846576 47.95122567 15.92459716 47.95507812 17.50073242 C47.96479207 19.91294728 47.99581736 22.32431302 48.02734375 24.73632812 C48.03387307 26.26692202 48.03912382 27.79752201 48.04296875 29.328125 C48.05531555 30.05007553 48.06766235 30.77202606 48.0803833 31.51585388 C48.06731256 34.45144115 48.04921387 36.49193146 46.38183594 38.96704102 C44.71484375 39.98828125 44.71484375 39.98828125 41.71484375 39.98828125 C41.71484375 29.75828125 41.71484375 19.52828125 41.71484375 8.98828125 C36.29740698 13.17278683 36.29740698 13.17278683 30.88574219 17.36474609 C30.20543945 17.88762207 29.52513672 18.41049805 28.82421875 18.94921875 C27.7873291 19.75045166 27.7873291 19.75045166 26.72949219 20.56787109 C24.78942528 21.9356982 22.86428016 22.98942551 20.71484375 23.98828125 C20.2458667 23.63523926 19.77688965 23.28219727 19.29370117 22.91845703 C17.16388173 21.31588845 15.03312371 19.71457247 12.90234375 18.11328125 C12.16435547 17.55769531 11.42636719 17.00210938 10.66601562 16.4296875 C9.95380859 15.89472656 9.24160156 15.35976562 8.5078125 14.80859375 C7.85321045 14.31633301 7.1986084 13.82407227 6.52416992 13.31689453 C4.95271894 12.1629563 3.33702852 11.06973776 1.71484375 9.98828125 C1.71484375 19.88828125 1.71484375 29.78828125 1.71484375 39.98828125 C-0.26515625 39.65828125 -2.24515625 39.32828125 -4.28515625 38.98828125 C-5.80260573 35.95338229 -5.46873005 32.79152139 -5.48828125 29.4609375 C-5.49398132 28.71621689 -5.4996814 27.97149628 -5.5055542 27.20420837 C-5.51500416 25.62809674 -5.52153817 24.05196534 -5.52539062 22.47583008 C-5.53510457 20.06361522 -5.56612986 17.65224948 -5.59765625 15.24023438 C-5.60418557 13.70964048 -5.60943632 12.17904049 -5.61328125 10.6484375 C-5.62562805 9.92648697 -5.63797485 9.20453644 -5.6506958 8.46070862 C-5.62852645 3.48164393 -5.62852645 3.48164393 -3.9074707 1.00878906 C-2.28515625 -0.01171875 -2.28515625 -0.01171875 0 0 Z " fill="#09C89A" transform="translate(516.28515625,68.01171875)"/>
<path d="M0 0 C6.35726881 1.45199659 10.64739258 4.8464034 14.3984375 10.11425781 C19.81845 20.3538383 19.08265687 37.4731477 16.7578125 48.62988281 C15.15576172 51.03930664 15.15576172 51.03930664 12.7578125 52.62988281 C9.4296875 53.14746094 9.4296875 53.14746094 5.5078125 53.16113281 C4.81268555 53.16495972 4.11755859 53.16878662 3.40136719 53.17272949 C1.93553209 53.17544461 0.46964822 53.16811116 -0.99609375 53.15136719 C-3.23547725 53.129947 -5.47165337 53.15117724 -7.7109375 53.17675781 C-9.13802789 53.17411446 -10.56511629 53.16898931 -11.9921875 53.16113281 C-13.28640625 53.15662109 -14.580625 53.15210938 -15.9140625 53.14746094 C-19.2421875 52.62988281 -19.2421875 52.62988281 -21.66210938 51.21386719 C-24.11634163 47.20033286 -23.81367612 43.37291499 -23.7734375 38.75488281 C-23.7772644 37.79340332 -23.78109131 36.83192383 -23.78503418 35.84130859 C-23.78775352 33.81053621 -23.78039079 31.77972882 -23.76367188 29.74902344 C-23.74226275 26.64080711 -23.76347296 23.53490226 -23.7890625 20.42675781 C-23.78641923 18.45279438 -23.78129426 16.47883238 -23.7734375 14.50488281 C-23.78153442 13.57562988 -23.78963135 12.64637695 -23.79797363 11.68896484 C-23.70530469 5.31168339 -23.70530469 5.31168339 -21.50341797 2.07006836 C-15.45287195 -1.78354544 -6.86032043 -0.88498134 0 0 Z M-18.2421875 5.62988281 C-18.2421875 19.48988281 -18.2421875 33.34988281 -18.2421875 47.62988281 C-13.3128125 47.65050781 -8.3834375 47.67113281 -3.3046875 47.69238281 C-1.74758057 47.70148682 -0.19047363 47.71059082 1.41381836 47.7199707 C2.62948486 47.72246826 3.84515137 47.72496582 5.09765625 47.72753906 C6.34925537 47.73277588 7.60085449 47.7380127 8.89038086 47.7434082 C11.65513544 47.95875316 11.65513544 47.95875316 12.7578125 46.62988281 C12.84539253 44.63023299 12.86477826 42.62752172 12.85546875 40.62597656 C12.85224609 39.41103516 12.84902344 38.19609375 12.84570312 36.94433594 C12.83732422 35.66494141 12.82894531 34.38554687 12.8203125 33.06738281 C12.81354492 31.14249023 12.81354492 31.14249023 12.80664062 29.17871094 C12.79480805 25.99574861 12.77687194 22.81281007 12.7578125 19.62988281 C8.4678125 19.29988281 4.1778125 18.96988281 -0.2421875 18.62988281 C-0.7371875 12.19488281 -0.7371875 12.19488281 -1.2421875 5.62988281 C-6.8521875 5.62988281 -12.4621875 5.62988281 -18.2421875 5.62988281 Z " fill="#15CB9F" transform="translate(877.2421875,435.3701171875)"/>
<path d="M0 0 C4.74626203 0.32878192 7.27481553 2.53628798 10.8125 5.5625 C11.78832031 6.38878906 12.76414062 7.21507812 13.76953125 8.06640625 C14.87361328 9.02353516 14.87361328 9.02353516 16 10 C17.22995949 9.0843974 18.45892386 8.16745797 19.6875 7.25 C20.4196875 6.70730469 21.151875 6.16460938 21.90625 5.60546875 C24.15414639 3.92746359 24.15414639 3.92746359 26.6875 1.5625 C29 0 29 0 31.64453125 0.40234375 C32.81048828 0.69818359 32.81048828 0.69818359 34 1 C34.02886751 5.14581887 34.04675327 9.29161216 34.0625 13.4375 C34.07087891 14.62150391 34.07925781 15.80550781 34.08789062 17.02539062 C34.09111328 18.15009766 34.09433594 19.27480469 34.09765625 20.43359375 C34.10289307 21.47572021 34.10812988 22.51784668 34.11352539 23.59155273 C34 26 34 26 33 27 C30.56339554 27.10082764 28.15575299 27.13972603 25.71875 27.1328125 C24.99006714 27.13376923 24.26138428 27.13472595 23.51062012 27.13571167 C21.9672029 27.13639335 20.42378283 27.13453988 18.88037109 27.13037109 C16.510026 27.12502262 14.13987041 27.13031642 11.76953125 27.13671875 C10.27343708 27.13605797 8.77734303 27.1347768 7.28125 27.1328125 C6.21094543 27.13584885 6.21094543 27.13584885 5.11901855 27.13894653 C0.11495191 27.11495191 0.11495191 27.11495191 -1 26 C-1.09959621 24.15840977 -1.13080411 22.31303033 -1.1328125 20.46875 C-1.13410156 19.34855469 -1.13539063 18.22835937 -1.13671875 17.07421875 C-1.13285156 15.89472656 -1.12898437 14.71523438 -1.125 13.5 C-1.12886719 12.32050781 -1.13273438 11.14101563 -1.13671875 9.92578125 C-1.13542969 8.80558594 -1.13414062 7.68539062 -1.1328125 6.53125 C-1.13168457 5.49548828 -1.13055664 4.45972656 -1.12939453 3.39257812 C-1 1 -1 1 0 0 Z " fill="#EBEEF0" transform="translate(664,612)"/>
<path d="M0 0 C4.60613783 0.62370748 8.39940738 2.50626307 12.48828125 4.59765625 C13.19147995 4.95137802 13.89467865 5.30509979 14.6191864 5.66954041 C16.85318349 6.79490078 19.08284992 7.92855543 21.3125 9.0625 C22.83110152 9.8293282 24.34997888 10.59561038 25.86914062 11.36132812 C29.58265171 13.23457649 33.29230273 15.11527236 37 17 C36.64036976 19.51741171 36.41805774 20.67767305 34.36450195 22.26098633 C33.66284912 22.61443115 32.96119629 22.96787598 32.23828125 23.33203125 C31.45525635 23.73510498 30.67223145 24.13817871 29.86547852 24.5534668 C28.60175415 25.17668823 28.60175415 25.17668823 27.3125 25.8125 C26.03040649 26.46182495 26.03040649 26.46182495 24.72241211 27.12426758 C22.98238424 28.00395465 21.23961639 28.87824313 19.49414062 29.74707031 C17.23393504 30.88248291 14.99697815 32.05134503 12.765625 33.2421875 C11.53139915 33.89090884 10.29703407 34.53936541 9.0625 35.1875 C7.98097656 35.75855469 6.89945312 36.32960938 5.78515625 36.91796875 C2.89248022 38.04177136 1.8158354 38.17383018 -1 37 C-0.42554084 31.39902321 1.63013463 27.04551982 4 22 C9.94 21.67 15.88 21.34 22 21 C22 19.68 22 18.36 22 17 C16.06 16.67 10.12 16.34 4 16 C-1.08557692 4.58846154 -1.08557692 4.58846154 -0.65234375 1.609375 C-0.43707031 1.07828125 -0.22179687 0.5471875 0 0 Z " fill="#FAFEFD" transform="translate(70,353)"/>
<path d="M0 0 C4.75870852 1.13757236 7.39829732 3.89629586 10.31591797 7.64892578 C14.06072251 14.71768275 13.61355784 24.82197584 11.99560547 32.47705078 C10.63232422 35.07470703 10.63232422 35.07470703 7.99560547 36.47705078 C4.29306464 37.03891946 0.6715123 37.03474966 -3.06689453 36.97705078 C-4.07300781 36.99251953 -5.07912109 37.00798828 -6.11572266 37.02392578 C-7.08058594 37.01876953 -8.04544922 37.01361328 -9.03955078 37.00830078 C-9.92006104 37.00378906 -10.80057129 36.99927734 -11.70776367 36.99462891 C-14.00439453 36.47705078 -14.00439453 36.47705078 -15.78979492 34.8581543 C-17.38862298 31.72380855 -17.39271191 29.36199351 -17.40283203 25.84814453 C-17.40669922 24.56617188 -17.41056641 23.28419922 -17.41455078 21.96337891 C-17.4082666 21.29894775 -17.40198242 20.6345166 -17.39550781 19.94995117 C-17.3794162 17.91728855 -17.39538688 15.88660578 -17.41455078 13.85400391 C-17.41068359 12.57332031 -17.40681641 11.29263672 -17.40283203 9.97314453 C-17.39944824 8.79937256 -17.39606445 7.62560059 -17.39257812 6.41625977 C-17.00439453 3.47705078 -17.00439453 3.47705078 -15.69458008 1.61352539 C-11.41639062 -1.26311363 -4.93960551 -0.6434083 0 0 Z M-13.00439453 3.47705078 C-13.00439453 13.37705078 -13.00439453 23.27705078 -13.00439453 33.47705078 C-6.07439453 33.47705078 0.85560547 33.47705078 7.99560547 33.47705078 C7.99560547 26.87705078 7.99560547 20.27705078 7.99560547 13.47705078 C5.02560547 13.47705078 2.05560547 13.47705078 -1.00439453 13.47705078 C-1.00439453 10.17705078 -1.00439453 6.87705078 -1.00439453 3.47705078 C-4.96439453 3.47705078 -8.92439453 3.47705078 -13.00439453 3.47705078 Z " fill="#AAB5C7" transform="translate(248.00439453125,571.52294921875)"/>
<path d="M0 0 C0.66 0 1.32 0 2 0 C2 7.59 2 15.18 2 23 C-5.26 23 -12.52 23 -20 23 C-20 17.72 -20 12.44 -20 7 C-17.525 7.99 -17.525 7.99 -15 9 C-11.76448392 9.43602667 -10.52214446 9.36879392 -7.83203125 7.46875 C-7.16558594 6.8190625 -6.49914062 6.169375 -5.8125 5.5 C-2.18055556 2 -2.18055556 2 0 2 C0 1.34 0 0.68 0 0 Z " fill="#EAFAF6" transform="translate(490,696)"/>
<path d="M0 0 C4.74626203 0.32878192 7.27481553 2.53628798 10.8125 5.5625 C11.78832031 6.38878906 12.76414062 7.21507812 13.76953125 8.06640625 C14.87361328 9.02353516 14.87361328 9.02353516 16 10 C17.22995949 9.0843974 18.45892386 8.16745797 19.6875 7.25 C20.4196875 6.70730469 21.151875 6.16460938 21.90625 5.60546875 C24.15414639 3.92746359 24.15414639 3.92746359 26.6875 1.5625 C27.450625 1.046875 28.21375 0.53125 29 0 C31.475 0.495 31.475 0.495 34 1 C34 9.25 34 17.5 34 26 C32.68 26.33 31.36 26.66 30 27 C29.505 17.1 29.505 17.1 29 7 C25.04 9.97 21.08 12.94 17 16 C11.96410848 13.28061858 8.56811846 10.80676538 4 7 C3.67 13.6 3.34 20.2 3 27 C1.68 26.67 0.36 26.34 -1 26 C-1.02886751 21.85418113 -1.04675327 17.70838784 -1.0625 13.5625 C-1.07087891 12.37849609 -1.07925781 11.19449219 -1.08789062 9.97460938 C-1.09111328 8.84990234 -1.09433594 7.72519531 -1.09765625 6.56640625 C-1.10289307 5.52427979 -1.10812988 4.48215332 -1.11352539 3.40844727 C-1 1 -1 1 0 0 Z " fill="#9FACC0" transform="translate(664,612)"/>
<path d="M0 0 C3.60089254 1.34637478 6.3407507 3.53388335 9.2890625 5.93359375 C16.25386721 11.64514878 16.25386721 11.64514878 24.8515625 13.62109375 C25.93824219 13.69585937 27.02492188 13.770625 28.14453125 13.84765625 C29.39169922 13.92113281 29.39169922 13.92113281 30.6640625 13.99609375 C30.6640625 14.32609375 30.6640625 14.65609375 30.6640625 14.99609375 C10.2040625 14.99609375 -10.2559375 14.99609375 -31.3359375 14.99609375 C-31.3359375 14.66609375 -31.3359375 14.33609375 -31.3359375 13.99609375 C-30.62050781 14.03992188 -29.90507812 14.08375 -29.16796875 14.12890625 C-18.07347382 14.10020122 -12.09375578 8.25228392 -4.2734375 1.11328125 C-2.3359375 -0.00390625 -2.3359375 -0.00390625 0 0 Z " fill="#D3E3F0" transform="translate(475.3359375,332.00390625)"/>
<path d="M0 0 C7.87021443 4.49726539 7.87021443 4.49726539 10.23828125 6.54296875 C10.74810547 6.97673828 11.25792969 7.41050781 11.78320312 7.85742188 C12.28787109 8.29634766 12.79253906 8.73527344 13.3125 9.1875 C16.92647163 12.42288258 16.92647163 12.42288258 21 15 C21 15.66 21 16.32 21 17 C19.6105957 18.28100586 19.6105957 18.28100586 17.67578125 19.71484375 C16.62680664 20.49698242 16.62680664 20.49698242 15.55664062 21.29492188 C14.81607422 21.83697266 14.07550781 22.37902344 13.3125 22.9375 C12.59126953 23.47568359 11.87003906 24.01386719 11.12695312 24.56835938 C7.48481378 27.2658708 3.90530451 29.6568173 0 32 C0 21.44 0 10.88 0 0 Z " fill="#E3E9EF" transform="translate(509,358)"/>
<path d="M0 0 C0 10.56 0 21.12 0 32 C-10.5 25 -10.5 25 -15.5625 21.25 C-16.59503906 20.49203125 -17.62757813 19.7340625 -18.69140625 18.953125 C-19.45324219 18.30859375 -20.21507812 17.6640625 -21 17 C-21 16.34 -21 15.68 -21 15 C-19.01334942 13.31209387 -17.02606669 11.73999745 -14.9375 10.1875 C-14.34420898 9.73971191 -13.75091797 9.29192383 -13.13964844 8.83056641 C-11.4320779 7.54591632 -9.71778788 6.27094327 -8 5 C-7.21238281 4.41605469 -6.42476563 3.83210938 -5.61328125 3.23046875 C-1.17255043 0 -1.17255043 0 0 0 Z " fill="#E3E9EF" transform="translate(441,358)"/>
<path d="M0 0 C3.39914043 2.86594193 6.62529678 5.58961076 9.625 8.875 C11.77041551 11.15158478 11.77041551 11.15158478 14.2890625 11.4765625 C18.21914398 10.78568362 20.16858421 8.33190358 22.75 5.5 C24.48754433 3.6535756 26.23688758 1.82227727 28 0 C28.33 0 28.66 0 29 0 C29 5.94 29 11.88 29 18 C19.43 18 9.86 18 0 18 C0 12.06 0 6.12 0 0 Z " fill="#FBFBFC" transform="translate(271,162)"/>
<path d="M0 0 C12.87 0 25.74 0 39 0 C33.375 5.625 33.375 5.625 30.44921875 7.89453125 C29.83369141 8.37470703 29.21816406 8.85488281 28.58398438 9.34960938 C27.64522461 10.07374023 27.64522461 10.07374023 26.6875 10.8125 C26.04232422 11.31458984 25.39714844 11.81667969 24.73242188 12.33398438 C23.15732875 13.55905681 21.57899684 14.7799632 20 16 C18.19193686 14.64424905 16.38448576 13.28770692 14.578125 11.9296875 C12.6558765 10.49091362 10.72785147 9.05985121 8.796875 7.6328125 C8.25192383 7.22861084 7.70697266 6.82440918 7.14550781 6.40795898 C5.54634534 5.22187394 3.94507815 4.03862829 2.34375 2.85546875 C1.5703125 2.24316406 0.796875 1.63085938 0 1 C0 0.67 0 0.34 0 0 Z " fill="#E7EEEF" transform="translate(518,68)"/>
<path d="M0 0 C3.5 0.6875 3.5 0.6875 6.4375 2.5625 C9.33363574 6.95058445 9.39055891 10.57098701 8.5 15.6875 C6.48736863 19.63225749 5.26622975 20.4367339 1.0625 21.8125 C-2.5 21.6875 -2.5 21.6875 -5.375 19.4375 C-8.62996003 15.22519878 -9.0331591 11.93023111 -8.5 6.6875 C-6.56891485 2.7214148 -4.41210238 0.86666297 0 0 Z " fill="#EBFAF7" transform="translate(454.5,697.3125)"/>
<path d="M0 0 C0 4.95 0 9.9 0 15 C-4.95 15 -9.9 15 -15 15 C-15 11.37 -15 7.74 -15 4 C-13.96875 4.268125 -12.9375 4.53625 -11.875 4.8125 C-7.65133943 5.02009066 -7.65133943 5.02009066 -4.6875 2.5625 C-2 0 -2 0 0 0 Z " fill="#FCFCFD" transform="translate(746,229)"/>
<path d="M0 0 C2.875 2.4375 2.875 2.4375 5 5 C5.33 5.33 5.66 5.66 6 6 C6.59506028 9.64474424 6.63907184 12.04738889 4.54296875 15.171875 C-2.08420747 22.81754357 -2.08420747 22.81754357 -7.9375 23.375 C-11.11098621 23.30486771 -11.84647554 23.11514335 -14.5 21.125 C-16 19 -16 19 -16 17 C-12.125 17.875 -12.125 17.875 -11 19 C-8.2587435 19.7555432 -8.2587435 19.7555432 -5 19 C-2.09457277 16.69963227 0.12133836 14.19601584 2 11 C2.1344095 7.60134984 2.1344095 7.60134984 1 5 C-2.35458155 4.23477199 -2.35458155 4.23477199 -6 4 C-7.96431405 5.29264699 -7.96431405 5.29264699 -9 7 C-9.99 6.67 -10.98 6.34 -12 6 C-9.48176239 0.18868244 -6.14401483 -0.74151903 0 0 Z " fill="#E9F4FD" transform="translate(485,359)"/>
<path d="M0 0 C1.9375 1.5625 1.9375 1.5625 3 3 C2.67 3.99 2.34 4.98 2 6 C1.443125 5.690625 0.88625 5.38125 0.3125 5.0625 C-2.23840456 3.89046277 -4.19810897 3.26228698 -7 3 C-10.29307044 4.72009178 -12.77274898 7.03409105 -15 10 C-15.27929421 13.81350595 -15.27929421 13.81350595 -14 17 C-12.88833136 18.33187793 -12.88833136 18.33187793 -10.0625 18.1875 C-6.89107141 18.33278733 -6.89107141 18.33278733 -5 16 C-4.01 16 -3.02 16 -2 16 C-2.25 17.875 -2.25 17.875 -3 20 C-6.16857001 22.3470889 -9.15724779 22.47054109 -13 22 C-16.03583818 20.44834938 -17.55395169 19.21606856 -18.7421875 15.9765625 C-19.4082249 12.55289655 -19.58256805 10.09970273 -17.921875 6.96484375 C-12.97415464 0.83227457 -7.93744019 -2.09668231 0 0 Z " fill="#E8F4FD" transform="translate(478,369)"/>
<path d="M0 0 C3.5625 0.375 3.5625 0.375 5.5625 1.9375 C6.99702262 5.43414889 6.48343323 7.75704804 5.5625 11.375 C4.3125 13.3125 4.3125 13.3125 2.5625 14.375 C0.125 14.875 0.125 14.875 -2.4375 14.375 C-4.8125 12.3125 -4.8125 12.3125 -6.4375 9.375 C-6.24882487 3.80908363 -6.0274663 0.65754178 0 0 Z " fill="#EFF1F4" transform="translate(719.4375,229.625)"/>
<path d="M0 0 C8.25 0 16.5 0 25 0 C21.82270675 3.17729325 19.21605594 5.74084058 15.6875 8.3125 C14.99011719 8.82425781 14.29273438 9.33601562 13.57421875 9.86328125 C13.05472656 10.23839844 12.53523437 10.61351562 12 11 C9.99702215 9.35767739 7.99756092 7.71138756 6 6.0625 C5.42765625 5.59392578 4.8553125 5.12535156 4.265625 4.64257812 C2.82502935 3.45065672 1.41025129 2.22767412 0 1 C0 0.67 0 0.34 0 0 Z " fill="#E9ECEF" transform="translate(668,612)"/>
<path d="M0 0 C0.66 0.33 1.32 0.66 2 1 C1.773125 1.763125 1.54625 2.52625 1.3125 3.3125 C0.73747388 5.9421583 0.73747388 5.9421583 2 7.75 C4.87586284 9.54741427 7.66603698 9.68547519 11 10 C9.68 10.33 8.36 10.66 7 11 C7 11.66 7 12.32 7 13 C4.25683237 15.09771643 2.30896564 15.95674481 -1.125 16.4375 C-4 16 -4 16 -5.875 14.3125 C-7.30776249 11.36737711 -7.75183044 10.2328709 -7 7 C-4.85972179 4.44444393 -2.49361834 2.20736113 0 0 Z " fill="#2596EC" transform="translate(469,372)"/>
<path d="M0 0 C6.93 0 13.86 0 21 0 C15 7 15 7 12 10 C8.19030003 9.87610732 6.29020994 7.63429179 3.75 5 C3.04359375 4.278125 2.3371875 3.55625 1.609375 2.8125 C0 1 0 1 0 0 Z " fill="#FDFDFE" transform="translate(275,160)"/>
<path d="M0 0 C2.4375 0.875 2.4375 0.875 4.4375 3.875 C4.79239252 7.21098971 4.75853306 9.23293388 3.25 12.25 C1.4375 13.875 1.4375 13.875 -1.125 14.3125 C-1.929375 14.168125 -2.73375 14.02375 -3.5625 13.875 C-6.09936376 10.06970436 -6.15605135 7.33590938 -5.5625 2.875 C-3.92978469 0.0392313 -3.26331106 -0.15918591 0 0 Z " fill="#0DC99B" transform="translate(455.5625,701.125)"/>
<path d="M0 0 C0.83265381 0.00523682 1.66530762 0.01047363 2.52319336 0.01586914 C3.42231445 0.0190918 4.32143555 0.02231445 5.24780273 0.02563477 C6.66609375 0.03820312 6.66609375 0.03820312 8.11303711 0.05102539 C9.06243164 0.05553711 10.01182617 0.06004883 10.98999023 0.06469727 C13.34356776 0.07652429 15.69702188 0.09300514 18.05053711 0.11352539 C18.61303711 2.05102539 18.61303711 2.05102539 19.05053711 4.11352539 C18.05053711 5.11352539 18.05053711 5.11352539 16.10107422 5.22705078 C15.26842041 5.22181396 14.4357666 5.21657715 13.57788086 5.21118164 C12.67875977 5.20795898 11.77963867 5.20473633 10.85327148 5.20141602 C9.90774414 5.19303711 8.9622168 5.1846582 7.98803711 5.17602539 C7.03864258 5.17151367 6.08924805 5.16700195 5.11108398 5.16235352 C2.75750646 5.15052649 0.40405234 5.13404564 -1.94946289 5.11352539 C-2.51196289 3.17602539 -2.51196289 3.17602539 -2.94946289 1.11352539 C-1.94946289 0.11352539 -1.94946289 0.11352539 0 0 Z " fill="#12CA9D" transform="translate(865.949462890625,461.886474609375)"/>
<path d="M0 0 C5.94 0 11.88 0 18 0 C11.28571429 6.71428571 11.28571429 6.71428571 9 8 C5.22385094 7.81119255 2.67503965 6.67503965 0 4 C0 2.68 0 1.36 0 0 Z " fill="#E6F9F4" transform="translate(470,694)"/>
<path d="M0 0 C7.26 0 14.52 0 22 0 C21.67 1.32 21.34 2.64 21 4 C14.4 4 7.8 4 1 4 C0.67 2.68 0.34 1.36 0 0 Z " fill="#05C798" transform="translate(863,472)"/>
<path d="M0 0 C0.99 0.33 1.98 0.66 3 1 C4.34807677 4.29701062 4.10070113 7.7354961 4.0625 11.25 C4.05347656 12.32765625 4.04445313 13.4053125 4.03515625 14.515625 C4.02355469 15.33546875 4.01195312 16.1553125 4 17 C2.35 16.67 0.7 16.34 -1 16 C-1.02685095 13.52076199 -1.04676547 11.0418116 -1.0625 8.5625 C-1.07506836 7.50192383 -1.07506836 7.50192383 -1.08789062 6.41992188 C-1.09653588 4.61306441 -1.05220011 2.80612397 -1 1 C-0.67 0.67 -0.34 0.34 0 0 Z " fill="#E4E7EA" transform="translate(498,513)"/>
<path d="M0 0 C1.98 0.495 1.98 0.495 4 1 C4.33 5.95 4.66 10.9 5 16 C3.68 16.33 2.36 16.66 1 17 C-0.99520233 15.00479767 -0.45409364 11.23952834 -0.625 8.5 C-0.6765625 7.79746094 -0.728125 7.09492188 -0.78125 6.37109375 C-0.89838401 4.58307759 -0.95396301 2.79125732 -1 1 C-0.67 0.67 -0.34 0.34 0 0 Z " fill="#E3E6EA" transform="translate(470,252)"/>
<path d="M0 0 C0.33 0 0.66 0 1 0 C1.13277344 0.56589844 1.26554687 1.13179688 1.40234375 1.71484375 C1.57894531 2.44832031 1.75554687 3.18179687 1.9375 3.9375 C2.19853516 5.03384766 2.19853516 5.03384766 2.46484375 6.15234375 C2.83887569 7.99969898 2.83887569 7.99969898 4 9 C6.95817107 9.25005386 6.95817107 9.25005386 10 9 C10.66 8.34 11.32 7.68 12 7 C12.99 7 13.98 7 15 7 C14.75 8.875 14.75 8.875 14 11 C10.83142999 13.3470889 7.84275221 13.47054109 4 13 C1.1875 11.4375 1.1875 11.4375 -1 9 C-1.9375 5.375 -1.9375 5.375 -2 2 C-1.34 1.34 -0.68 0.68 0 0 Z " fill="#F4F9FE" transform="translate(461,378)"/>
<path d="M0 0 C5.40489519 1.52012677 8.98492628 5.27385218 13 9 C12.67 9.99 12.34 10.98 12 12 C8.29496359 11.39665691 6.14031852 9.77525763 3.25 7.4375 C2.45078125 6.79683594 1.6515625 6.15617187 0.828125 5.49609375 C0.22484375 5.00238281 -0.3784375 4.50867188 -1 4 C-0.67 2.68 -0.34 1.36 0 0 Z " fill="#E2E5E8" transform="translate(577,453)"/>
<path d="M0 0 C0.99 0.33 1.98 0.66 3 1 C3.09038099 6.15171623 2.84681133 10.91913204 2 16 C0.68 16 -0.64 16 -2 16 C-2.05423638 14.08364783 -2.09289963 12.16685075 -2.125 10.25 C-2.14820313 9.18265625 -2.17140625 8.1153125 -2.1953125 7.015625 C-2.00487687 4.07529894 -1.52670104 2.47638122 0 0 Z " fill="#E7EBEE" transform="translate(471,218)"/>
<path d="M0 0 C1.32 0 2.64 0 4 0 C3.71515154 1.73030291 3.42180062 3.45920714 3.125 5.1875 C2.96257812 6.15042969 2.80015625 7.11335937 2.6328125 8.10546875 C2.01960483 10.91032604 1.14333657 13.37224747 0 16 C-1.32 15.67 -2.64 15.34 -4 15 C-2.07289294 4.44191344 -2.07289294 4.44191344 0 0 Z " fill="#E7EAEE" transform="translate(488,616)"/>
<path d="M0 0 C0.99 0 1.98 0 3 0 C3.20674944 5.78898419 2.59162079 10.42932723 1 16 C-0.32 16 -1.64 16 -3 16 C-2.57910004 10.39538469 -2.08386889 5.27913453 0 0 Z " fill="#E7EBEE" transform="translate(495,582)"/>
<path d="M0 0 C1.32 0.33 2.64 0.66 4 1 C2.45941767 6.01508715 0.97068161 10.6147081 -2 15 C-2.99 14.67 -3.98 14.34 -5 14 C-4.46515599 8.65155992 -2.53309233 4.64203897 0 0 Z " fill="#E1E4E8" transform="translate(380,468)"/>
<path d="M0 0 C-0.33 1.65 -0.66 3.3 -1 5 C-9.42857143 7.28571429 -9.42857143 7.28571429 -14 7 C-14 5.68 -14 4.36 -14 3 C-12.906875 2.690625 -11.81375 2.38125 -10.6875 2.0625 C-3.52941176 0 -3.52941176 0 0 0 Z " fill="#E2E5E8" transform="translate(357,411)"/>
<path d="M0 0 C0.99 0 1.98 0 3 0 C3 5.28 3 10.56 3 16 C1.68 16.33 0.36 16.66 -1 17 C-1.02684679 14.35409986 -1.04676357 11.70846904 -1.0625 9.0625 C-1.07087891 8.30775391 -1.07925781 7.55300781 -1.08789062 6.77539062 C-1.09652441 4.85005687 -1.05224333 2.92464419 -1 1 C-0.67 0.67 -0.34 0.34 0 0 Z " fill="#E6EAEE" transform="translate(498,548)"/>
<path d="M0 0 C3.49844386 0.63389235 5.84086876 2.05177694 8.75 4.0625 C9.94882812 4.88427734 9.94882812 4.88427734 11.171875 5.72265625 C12.07679688 6.35494141 12.07679688 6.35494141 13 7 C12.67 8.32 12.34 9.64 12 11 C6.91061189 9.40956621 3.12543357 6.2553049 -1 3 C-0.67 2.01 -0.34 1.02 0 0 Z " fill="#E2E6E9" transform="translate(350,332)"/>
<path d="M0 0 C5.4389165 -0.21755666 9.87080814 -0.10428384 15 2 C14.67 2.99 14.34 3.98 14 5 C12.04174127 5.02694851 10.08337774 5.04637218 8.125 5.0625 C7.03445313 5.07410156 5.94390625 5.08570313 4.8203125 5.09765625 C2 5 2 5 0 4 C0 2.68 0 1.36 0 0 Z " fill="#E8ECEF" transform="translate(251,420)"/>
<path d="M0 0 C0 1.32 0 2.64 0 4 C-1.7491497 4.33776684 -3.49936145 4.67003671 -5.25 5 C-6.71179688 5.2784375 -6.71179688 5.2784375 -8.203125 5.5625 C-11 6 -11 6 -15 6 C-15 4.68 -15 3.36 -15 2 C-9.75614911 0.2520497 -5.52677733 -0.19392201 0 0 Z " fill="#E2E5E8" transform="translate(611,387)"/>
<path d="M0 0 C0 1.32 0 2.64 0 4 C-5.22512279 5.46670113 -9.5814234 6.22577402 -15 6 C-15 4.68 -15 3.36 -15 2 C-9.92523206 0.73694665 -5.27203646 -0.27036084 0 0 Z " fill="#E3E7EA" transform="translate(687,232)"/>
<path d="M0 0 C3.10442031 1.3904499 5.3656443 3.01571598 7.8125 5.375 C8.43769531 5.96023438 9.06289063 6.54546875 9.70703125 7.1484375 C11 9 11 9 10.69921875 11.2265625 C10.46847656 11.81179688 10.23773437 12.39703125 10 13 C6.18063472 11.44396229 3.73955562 9.04395069 1 6 C1 5.34 1 4.68 1 4 C0.34 4 -0.32 4 -1 4 C-0.67 2.68 -0.34 1.36 0 0 Z " fill="#E6EAED" transform="translate(601,474)"/>
<path d="M0 0 C3 1 3 1 4.38671875 3.14453125 C4.81597656 4.02496094 5.24523437 4.90539062 5.6875 5.8125 C6.12449219 6.68519531 6.56148437 7.55789063 7.01171875 8.45703125 C8 11 8 11 8 15 C6.17578125 14.80078125 6.17578125 14.80078125 4 14 C2.48046875 11.85546875 2.48046875 11.85546875 1.1875 9.1875 C0.74792969 8.31480469 0.30835938 7.44210937 -0.14453125 6.54296875 C-1.06404749 3.80961224 -1.0076835 2.65212405 0 0 Z " fill="#E7EBEE" transform="translate(655,551)"/>
<path d="M0 0 C4.29 0.66 8.58 1.32 13 2 C13.33 3.32 13.66 4.64 14 6 C8.47322267 6.19392201 4.24385089 5.7479503 -1 4 C-0.67 2.68 -0.34 1.36 0 0 Z " fill="#E8EBEE" transform="translate(221,416)"/>
<path d="M0 0 C3.50861642 0.58218193 5.24929353 1.81713692 7.75 4.3125 C8.36359375 4.90675781 8.9771875 5.50101562 9.609375 6.11328125 C11 8 11 8 11 12 C7.12488273 11.45015228 5.40423494 9.72444669 2.75 6.9375 C2.04359375 6.20402344 1.3371875 5.47054688 0.609375 4.71484375 C0.07828125 4.14894531 -0.4528125 3.58304687 -1 3 C-0.67 2.01 -0.34 1.02 0 0 Z " fill="#E6EAEE" transform="translate(327,312)"/>
<path d="M0 0 C-0.51776621 4.10447392 -2.64627444 5.95699523 -5.5625 8.75 C-6.80193359 9.94882812 -6.80193359 9.94882812 -8.06640625 11.171875 C-8.70449219 11.77515625 -9.34257813 12.3784375 -10 13 C-10.99 12.01 -11.98 11.02 -13 10 C-4.78082192 0 -4.78082192 0 0 0 Z " fill="#E2E5E9" transform="translate(572,288)"/>
<path d="M0 0 C-1 3 -1 3 -3.14453125 4.38671875 C-4.02496094 4.81597656 -4.90539062 5.24523437 -5.8125 5.6875 C-6.68519531 6.12449219 -7.55789063 6.56148438 -8.45703125 7.01171875 C-11 8 -11 8 -15 8 C-14.80078125 6.17578125 -14.80078125 6.17578125 -14 4 C-11.85546875 2.48046875 -11.85546875 2.48046875 -9.1875 1.1875 C-8.31480469 0.74792969 -7.44210937 0.30835938 -6.54296875 -0.14453125 C-3.80961224 -1.06404749 -2.65212405 -1.0076835 0 0 Z " fill="#E6EAEE" transform="translate(626,252)"/>
<path d="M0 0 C-1 3 -1 3 -3.36328125 4.203125 C-4.33652344 4.54859375 -5.30976562 4.8940625 -6.3125 5.25 C-7.27800781 5.60578125 -8.24351562 5.9615625 -9.23828125 6.328125 C-12.02246834 7.00546613 -13.35478935 6.98017307 -16 6 C-15 3 -15 3 -12.63671875 1.796875 C-11.66347656 1.45140625 -10.69023438 1.1059375 -9.6875 0.75 C-8.23923828 0.21632812 -8.23923828 0.21632812 -6.76171875 -0.328125 C-3.97753166 -1.00546613 -2.64521065 -0.98017307 0 0 Z " fill="#E7EAEE" transform="translate(656,240)"/>
<path d="M0 0 C0.99 0 1.98 0 3 0 C2.57910004 5.60461531 2.08386889 10.72086547 0 16 C-0.99 16 -1.98 16 -3 16 C-2.88544319 14.08268082 -2.75793742 12.1661325 -2.625 10.25 C-2.55539062 9.18265625 -2.48578125 8.1153125 -2.4140625 7.015625 C-2.0271777 4.19793568 -1.44313834 2.4169634 0 0 Z " fill="#E6EAEE" transform="translate(476,185)"/>
<path d="M0 0 C0.89203125 0.00902344 1.7840625 0.01804687 2.703125 0.02734375 C3.37859375 0.03894531 4.0540625 0.05054688 4.75 0.0625 C4.42 1.3825 4.09 2.7025 3.75 4.0625 C-1.01307437 5.01511487 -5.4166528 5.14583357 -10.25 5.0625 C-9.92 3.7425 -9.59 2.4225 -9.25 1.0625 C-6.09493858 0.12630187 -3.28413498 -0.0432123 0 0 Z " fill="#E7EAEE" transform="translate(322.25,417.9375)"/>
<path d="M0 0 C5.05255964 0.63156995 9.29593201 2.13459373 14 4 C14 5.32 14 6.64 14 8 C8.94744036 7.36843005 4.70406799 5.86540627 0 4 C0 2.68 0 1.36 0 0 Z " fill="#E5E8EC" transform="translate(161,400)"/>
<path d="M0 0 C5.8022175 -0.36263859 9.63999211 0.74315457 15 3 C14.67 3.99 14.34 4.98 14 6 C9.02906176 5.58846263 4.55491614 5.20399168 0 3 C0 2.01 0 1.02 0 0 Z " fill="#E7EBEE" transform="translate(690,389)"/>
<path d="M0 0 C0 2.125 0 2.125 -1 5 C-4.80718768 8.72006668 -7.58163288 11 -13 11 C-12.63722831 8.17288273 -12.10850956 7.10634802 -10.0390625 5.078125 C-9.24242187 4.47484375 -8.44578125 3.8715625 -7.625 3.25 C-6.83351563 2.63640625 -6.04203125 2.0228125 -5.2265625 1.390625 C-3 0 -3 0 0 0 Z " fill="#E6EAED" transform="translate(597,267)"/>
<path d="M0 0 C1.32 0.33 2.64 0.66 4 1 C2.45730076 5.72065967 0.92205381 10.41664092 -1 15 C-2.32 14.67 -3.64 14.34 -5 14 C-3.35 9.38 -1.7 4.76 0 0 Z " fill="#E4E8EC" transform="translate(486,153)"/>
<path d="M0 0 C2.29160319 -0.02692484 4.58329546 -0.04636124 6.875 -0.0625 C8.15117188 -0.07410156 9.42734375 -0.08570313 10.7421875 -0.09765625 C14 0 14 0 16 1 C16 1.99 16 2.98 16 4 C13.70839681 4.02692484 11.41670454 4.04636124 9.125 4.0625 C7.84882812 4.07410156 6.57265625 4.08570313 5.2578125 4.09765625 C2 4 2 4 0 3 C0 2.01 0 1.02 0 0 Z " fill="#E7EAEE" transform="translate(658,385)"/>
<path d="M0 0 C3 1 3 1 4.421875 3.3984375 C4.86015625 4.38070313 5.2984375 5.36296875 5.75 6.375 C6.42289062 7.84066406 6.42289062 7.84066406 7.109375 9.3359375 C8 12 8 12 7 15 C4.44429008 13.9992378 3.20299051 13.31576301 1.69921875 10.9765625 C1.36535156 10.20054687 1.03148437 9.42453125 0.6875 8.625 C0.34074219 7.85414063 -0.00601562 7.08328125 -0.36328125 6.2890625 C-1.07011845 3.7479177 -0.86878073 2.45500619 0 0 Z " fill="#E7EAEE" transform="translate(294,260)"/>
<path d="M0 0 C-1.38779449 3.34072178 -2.81588196 4.90199421 -5.875 6.8125 C-6.55304688 7.25207031 -7.23109375 7.69164062 -7.9296875 8.14453125 C-10.40762047 9.16843185 -11.52489914 8.90457722 -14 8 C-12.56684975 4.38226397 -10.95412036 3.030893 -7.5625 1.1875 C-6.78003906 0.74792969 -5.99757813 0.30835938 -5.19140625 -0.14453125 C-3 -1 -3 -1 0 0 Z " fill="#E5E9ED" transform="translate(305,562)"/>
<path d="M0 0 C5.31027254 1.46032495 9.46330032 3.98320986 14 7 C13.67 7.66 13.34 8.32 13 9 C7.29370646 8.57202798 3.58921384 6.15654048 -1 3 C-0.67 2.01 -0.34 1.02 0 0 Z " fill="#E7EAEE" transform="translate(750,408)"/>
<path d="M0 0 C4.62 0 9.24 0 14 0 C14 1.32 14 2.64 14 4 C9.05 4 4.1 4 -1 4 C-0.67 2.68 -0.34 1.36 0 0 Z " fill="#E6E9ED" transform="translate(628,384)"/>
<path d="M0 0 C2.81228361 0.35536481 3.82581484 0.80350348 5.73828125 2.9609375 C6.25777344 3.75757813 6.77726562 4.55421875 7.3125 5.375 C7.84488281 6.16648437 8.37726563 6.95796875 8.92578125 7.7734375 C10 10 10 10 9 13 C8.01 13 7.02 13 6 13 C4.140625 10.91796875 4.140625 10.91796875 2.25 8.1875 C1.29867188 6.84751953 1.29867188 6.84751953 0.328125 5.48046875 C-0.11015625 4.66191406 -0.5484375 3.84335937 -1 3 C-0.67 2.01 -0.34 1.02 0 0 Z " fill="#E6EAEE" transform="translate(308,288)"/>
<path d="M0 0 C0.56203125 0.23203125 1.1240625 0.4640625 1.703125 0.703125 C0.5132633 4.27271011 -0.7473768 5.16274129 -3.671875 7.453125 C-4.46335937 8.08734375 -5.25484375 8.7215625 -6.0703125 9.375 C-6.80507813 9.81328125 -7.53984375 10.2515625 -8.296875 10.703125 C-9.286875 10.373125 -10.276875 10.043125 -11.296875 9.703125 C-11.296875 6.703125 -11.296875 6.703125 -9.46875 4.84375 C-8.66953125 4.21984375 -7.8703125 3.5959375 -7.046875 2.953125 C-6.25796875 2.31890625 -5.4690625 1.6846875 -4.65625 1.03125 C-2.296875 -0.296875 -2.296875 -0.296875 0 0 Z " fill="#E6EAEE" transform="translate(328.296875,543.296875)"/>
<path d="M0 0 C1.32 0.33 2.64 0.66 4 1 C2.59155282 4.21524305 0.89655214 6.32183868 -1.625 8.75 C-2.57246094 9.67039062 -2.57246094 9.67039062 -3.5390625 10.609375 C-4.02117187 11.06828125 -4.50328125 11.5271875 -5 12 C-5.99 11.67 -6.98 11.34 -8 11 C-6.63629701 8.00779732 -5.05091917 5.70973471 -2.875 3.25 C-2.33617187 2.63640625 -1.79734375 2.0228125 -1.2421875 1.390625 C-0.62730469 0.70226562 -0.62730469 0.70226562 0 0 Z " fill="#E6EAEE" transform="translate(348,521)"/>
<path d="M0 0 C4.52532262 1.50844087 6.70844662 4.90903894 9 9 C8.875 12 8.875 12 8 14 C1.36842105 7.55263158 1.36842105 7.55263158 -1 4 C-0.75 1.6875 -0.75 1.6875 0 0 Z " fill="#E6EAEE" transform="translate(622,498)"/>
<path d="M0 0 C5.26170694 1.41167747 8.72171358 3.74850232 13 7 C12.67 7.99 12.34 8.98 12 10 C6.73829306 8.58832253 3.27828642 6.25149768 -1 3 C-0.67 2.01 -0.34 1.02 0 0 Z " fill="#E6EAED" transform="translate(778,423)"/>
<path d="M0 0 C5.27315333 0.4452885 10.01770224 1.08373163 15 3 C15 3.99 15 4.98 15 6 C9.1977825 6.36263859 5.36000789 5.25684543 0 3 C0 2.01 0 1.02 0 0 Z " fill="#E7EAEE" transform="translate(190,410)"/>
<path d="M0 0 C0.66 0 1.32 0 2 0 C2.69848264 1.93356782 3.38344814 3.87202298 4.0625 5.8125 C4.44535156 6.89144531 4.82820313 7.97039062 5.22265625 9.08203125 C6 12 6 12 5 15 C4.01 15 3.02 15 2 15 C-1.54076539 5.32612313 -1.54076539 5.32612313 -1 1 C-0.67 0.67 -0.34 0.34 0 0 Z " fill="#E6EAEE" transform="translate(284,231)"/>
<path d="M0 0 C0.99 0 1.98 0 3 0 C4.60546875 2.046875 4.60546875 2.046875 6.1875 4.75 C6.71730469 5.63171875 7.24710938 6.5134375 7.79296875 7.421875 C9 10 9 10 9 14 C8.01 14 7.02 14 6 14 C4.39453125 11.953125 4.39453125 11.953125 2.8125 9.25 C2.28269531 8.36828125 1.75289062 7.4865625 1.20703125 6.578125 C0 4 0 4 0 0 Z " fill="#E6EAEE" transform="translate(639,524)"/>
<path d="M0 0 C1.32 0.33 2.64 0.66 4 1 C2.62318268 3.81708245 1.16486381 6.55443471 -0.4375 9.25 C-0.84871094 9.95640625 -1.25992187 10.6628125 -1.68359375 11.390625 C-2.11800781 11.92171875 -2.55242187 12.4528125 -3 13 C-3.99 13 -4.98 13 -6 13 C-5.51675181 7.84535266 -2.81389239 4.18449681 0 0 Z " fill="#E5E9ED" transform="translate(366,496)"/>
<path d="M0 0 C4.62 0 9.24 0 14 0 C14.33 0.99 14.66 1.98 15 3 C12.11584117 4.44207941 9.58278472 4.09394887 6.375 4.0625 C5.18648438 4.05347656 3.99796875 4.04445313 2.7734375 4.03515625 C1.85820312 4.02355469 0.94296875 4.01195312 0 4 C0 2.68 0 1.36 0 0 Z " fill="#E6EAED" transform="translate(282,421)"/>
<path d="M0 0 C5.27749285 0.53851968 9.25645564 1.77343836 14 4 C14 4.99 14 5.98 14 7 C8.72250715 6.46148032 4.74354436 5.22656164 0 3 C0 2.01 0 1.02 0 0 Z " fill="#E6EAEE" transform="translate(720,397)"/>
<path d="M0 0 C3.53571429 0.53571429 3.53571429 0.53571429 5 2 C5.125 5 5.125 5 5 8 C4 9 4 9 1.4375 9.0625 C0.633125 9.041875 -0.17125 9.02125 -1 9 C-1.625 5.625 -1.625 5.625 -2 2 C-1.34 1.34 -0.68 0.68 0 0 Z " fill="#A1AEC2" transform="translate(718,232)"/>
<path d="M0 0 C2.3125 -0.25 2.3125 -0.25 5 0 C6.875 1.5625 6.875 1.5625 8 4 C7.9375 7.625 7.9375 7.625 7 11 C5.02 11.99 5.02 11.99 3 13 C3.33 10.03 3.66 7.06 4 4 C0.25308553 2.60229416 0.25308553 2.60229416 -2 4 C-1.34 2.68 -0.68 1.36 0 0 Z " fill="#F6F7F9" transform="translate(718,230)"/>
<path d="M0 0 C4.95 0 9.9 0 15 0 C15 0.99 15 1.98 15 3 C10.05 3 5.1 3 0 3 C0 2.01 0 1.02 0 0 Z " fill="#A5B1C4" transform="translate(238,597)"/>
<path d="M0 0 C4.95 0 9.9 0 15 0 C15 0.99 15 1.98 15 3 C10.05 3 5.1 3 0 3 C0 2.01 0 1.02 0 0 Z " fill="#9EABC0" transform="translate(238,590)"/>
<path d="M0 0 C3.96 0 7.92 0 12 0 C7.21621622 4.78378378 7.21621622 4.78378378 3 5 C2.01 4.34 1.02 3.68 0 3 C0 2.01 0 1.02 0 0 Z " fill="#FCFCFD" transform="translate(731,227)"/>
<path d="M0 0 C0.66 1.32 1.32 2.64 2 4 C1 5 1 5 -2.5625 5.0625 C-3.696875 5.041875 -4.83125 5.02125 -6 5 C-6.33 3.68 -6.66 2.36 -7 1 C-4.53721199 -0.231394 -2.7204945 -0.07159196 0 0 Z " fill="#1ACCA1" transform="translate(870,452)"/>
<path d="M0 0 C1.32 0.33 2.64 0.66 4 1 C4.33 2.32 4.66 3.64 5 5 C3.35 5 1.7 5 0 5 C0 3.35 0 1.7 0 0 Z " fill="#E3E6EA" transform="translate(668,580)"/>
<path d="M0 0 C1.32 0 2.64 0 4 0 C4.33 1.32 4.66 2.64 5 4 C3.68 4.33 2.36 4.66 1 5 C0.67 3.35 0.34 1.7 0 0 Z " fill="#E0E3E6" transform="translate(278,212)"/>
<path d="M0 0 C1.98 0 3.96 0 6 0 C5.67 0.99 5.34 1.98 5 3 C3.35 3 1.7 3 0 3 C0 2.01 0 1.02 0 0 Z " fill="#A9B4C7" transform="translate(238,584)"/>
</svg>
