<svg width="20" height="20" viewBox="0 0 18 18" fill="none" xmlns="http://www.w3.org/2000/svg">
  <g clip-path="url(#clip0_420_54246)">
    <path d="M12.1003 5.24609H2.90304C2.38034 5.24609 1.87905 5.45374 1.50944 5.82334C1.13983 6.19295 0.93219 6.69424 0.93219 7.21694V13.7864C0.93219 14.3092 1.13983 14.8104 1.50944 15.1801C1.87905 15.5497 2.38034 15.7573 2.90304 15.7573H12.1003C12.623 15.7573 13.1243 15.5497 13.4939 15.1801C13.8636 14.8104 14.0712 14.3092 14.0712 13.7864V7.21694C14.0712 6.69424 13.8636 6.19295 13.4939 5.82334C13.1243 5.45374 12.623 5.24609 12.1003 5.24609ZM11.831 6.55999L7.96813 10.4229C7.90706 10.4844 7.8344 10.5333 7.75434 10.5667C7.67429 10.6 7.58842 10.6172 7.50169 10.6172C7.41497 10.6172 7.3291 10.6 7.24904 10.5667C7.16899 10.5333 7.09633 10.4844 7.03526 10.4229L3.17239 6.55999H11.831ZM12.7573 13.7864C12.7573 13.9607 12.6881 14.1278 12.5649 14.251C12.4417 14.3742 12.2746 14.4434 12.1003 14.4434H2.90304C2.72881 14.4434 2.56171 14.3742 2.43851 14.251C2.3153 14.1278 2.24609 13.9607 2.24609 13.7864V7.48629L6.10896 11.3492C6.47849 11.7182 6.97942 11.9255 7.50169 11.9255C8.02397 11.9255 8.52489 11.7182 8.89443 11.3492L12.7573 7.48629V13.7864Z" fill="#5D6A7E"></path>
  </g>
  <path d="M7 5.5C7 2.46243 9.46243 0 12.5 0C15.5376 0 18 2.46243 18 5.5C18 8.53757 15.5376 11 12.5 11C9.46243 11 7 8.53757 7 5.5Z" fill="#474747" class="no-cascade"></path>
  <path d="M11.8 3.9c0.1-0.3 0.4-0.5 0.7-0.4c0.3 0.1 0.5 0.3 0.5 0.6c0 0.2-0.2 0.5-0.5 0.6c-0.4 0.1-0.9 0.5-0.9 1v0.5C11.7 6.6 12.1 7 12.5 7C12.9 7 13.3 6.6 13.3 6.2v-0.1c0.8-0.3 1.4-1.1 1.4-2v0c0-1.3-0.9-2-1.9-2.2c-0.9-0.1-2.1 0.3-2.5 1.5C10.2 3.8 10.4 4.2 10.8 4.4C11.2 4.5 11.7 4.3 11.8 3.9Zm0.7 5.3C12.9 9.2 13.3 8.8 13.3 8.4C13.3 7.9 12.9 7.6 12.5 7.6C12.1 7.6 11.7 7.9 11.7 8.4C11.7 8.8 12.1 9.2 12.5 9.2Z" fill="#ffffff" class="no-cascade"></path>
  <defs>
    <clipPath id="clip0_420_54246" class="no-cascade">
      <rect width="18" height="18" fill="white"></rect>
    </clipPath>
  </defs>
</svg>