<svg width="20" height="20" viewBox="0 0 18 18" fill="none" xmlns="http://www.w3.org/2000/svg">
  <g clip-path="url(#a)">
    <path d="M12.1 5.246H2.903a1.97 1.97 0 0 0-1.97 1.97v6.57a1.971 1.971 0 0 0 1.97 1.971H12.1a1.97 1.97 0 0 0 1.971-1.97v-6.57a1.97 1.97 0 0 0-1.97-1.97Zm-.269 1.314-3.863 3.863a.659.659 0 0 1-.933 0L3.172 6.56h8.659Zm.926 7.226a.657.657 0 0 1-.657.657H2.903a.657.657 0 0 1-.657-.657v-6.3L6.11 11.35a1.971 1.971 0 0 0 2.785 0l3.863-3.863v6.3Z" fill="#5D6A7E"></path>
    <path fill-rule="evenodd" clip-rule="evenodd" d="M7 5.5a5.5 5.5 0 1 1 11 0 5.5 5.5 0 0 1-11 0Z" fill="#D93636" class="no-cascade"></path>
    <path d="M14.216 2.653a.8.8 0 1 1 1.131 1.131L13.631 5.5l1.716 1.716a.8.8 0 0 1-1.131 1.131L12.5 6.631l-1.716 1.716a.8.8 0 0 1-1.131-1.131L11.369 5.5 9.653 3.784a.8.8 0 0 1 1.131-1.131L12.5 4.369l1.716-1.716Z" fill="#fff" class="no-cascade"></path>
  </g>
  <defs>
    <clipPath id="a">
      <path fill="#fff" d="M0 0h18v18H0z" class="no-cascade"></path>
    </clipPath>
  </defs>
</svg>
